<svg xmlns="http://www.w3.org/2000/svg" xmlns:xlink="http://www.w3.org/1999/xlink" contentStyleType="text/css" data-diagram-type="DESCRIPTION" height="234px" preserveAspectRatio="none" style="width:362px;height:234px;background:#FFFFFF;" version="1.1" viewBox="0 0 362 234" width="362px" zoomAndPan="magnify"><defs/><g><!--cluster Rack 1--><g id="cluster_Rack 1"><rect fill="#FFFFFF" fill-opacity="0.00000" height="221.59" rx="2.5" ry="2.5" style="stroke:#181818;stroke-width:1;" width="146" x="7" y="7"/><text fill="#000000" font-family="sans-serif" font-size="14" font-weight="bold" lengthAdjust="spacing" textLength="52.4521" x="53.7739" y="21.9951">Rack 1</text></g><!--cluster Rack 2--><g id="cluster_Rack 2"><rect fill="#FFFFFF" fill-opacity="0.00000" height="87.3" rx="2.5" ry="2.5" style="stroke:#181818;stroke-width:1;" width="132" x="224" y="141.29"/><text fill="#000000" font-family="sans-serif" font-size="14" font-weight="bold" lengthAdjust="spacing" textLength="52.4521" x="263.7739" y="156.2851">Rack 2</text></g><!--entity A--><g id="elem_A"><rect fill="#F1F1F1" height="36.2969" rx="2.5" ry="2.5" style="stroke:#181818;stroke-width:0.5;" width="99.167" x="23.42" y="42"/><text fill="#000000" font-family="sans-serif" font-size="14" lengthAdjust="spacing" textLength="79.167" x="33.42" y="64.9951">Resource A</text></g><!--entity B--><g id="elem_B"><rect fill="#F1F1F1" height="36.2969" rx="2.5" ry="2.5" style="stroke:#181818;stroke-width:0.5;" width="99.1943" x="23.4" y="176.29"/><text fill="#000000" font-family="sans-serif" font-size="14" lengthAdjust="spacing" textLength="79.1943" x="33.4" y="199.2851">Resource B</text></g><!--entity C--><g id="elem_C"><rect fill="#F1F1F1" height="36.2969" rx="2.5" ry="2.5" style="stroke:#181818;stroke-width:0.5;" width="99.3652" x="240.32" y="176.29"/><text fill="#000000" font-family="sans-serif" font-size="14" lengthAdjust="spacing" textLength="79.3652" x="250.32" y="199.2851">Resource C</text></g><!--link A to B--><g id="link_A_B"><path d="M73,84.71 C73,110.02 73,144.46 73,169.8 " fill="#FFFFFF" fill-opacity="0.00000" id="A-B" style="stroke:#FFA500;stroke-width:1;"/><polygon fill="#FFA500" points="73,78.71,69,87.71,73,83.71,77,87.71,73,78.71" style="stroke:#FFA500;stroke-width:1;"/><polygon fill="#FFA500" points="73,175.8,77,166.8,73,170.8,69,166.8,73,175.8" style="stroke:#FFA500;stroke-width:1;"/><text fill="#000000" font-family="sans-serif" font-size="13" lengthAdjust="spacing" textLength="77.7144" x="74" y="121.3569">Low latency</text></g><!--link B to C--><g id="link_B_C"><path d="M129.06,194.44 C164.1,194.44 198.75,194.44 233.82,194.44 " fill="#FFFFFF" fill-opacity="0.00000" id="B-C" style="stroke:#FFA500;stroke-width:1;"/><polygon fill="#FFA500" points="123.06,194.44,132.06,198.44,128.06,194.44,132.06,190.44,123.06,194.44" style="stroke:#FFA500;stroke-width:1;"/><polygon fill="#FFA500" points="239.82,194.44,230.82,190.44,234.82,194.44,230.82,198.44,239.82,194.44" style="stroke:#FFA500;stroke-width:1;"/><text fill="#000000" font-family="sans-serif" font-size="13" lengthAdjust="spacing" textLength="81.7642" x="140.96" y="187.5069">High latency</text></g><!--SRC=[TOt12i8m44Jl-OeXznxqAAMGvE914Fo39IorD6PbKoaY_NTZGH2ajs4UywQCGxwJqWrELUOWIHHdfTopCSfngYanx8NYY9t5om2_DHTvQ6Gu2ofm6zIlr5Vgq3PD1uy3JZ8ZqSGvFitoVxRVFWkhBdnMllewXAex3ltrwti3]--></g></svg>